<?xml version="1.0" standalone="no"?>
<!DOCTYPE svg PUBLIC "-//W3C//DTD SVG 20010904//EN"
 "http://www.w3.org/TR/2001/REC-SVG-20010904/DTD/svg10.dtd">
<svg version="1.0" xmlns="http://www.w3.org/2000/svg"
 width="700.000000pt" height="700.000000pt" viewBox="0 0 700.000000 700.000000"
 preserveAspectRatio="xMidYMid meet">
<metadata>
Created by potrace 1.11, written by Peter Selinger 2001-2013
</metadata>
<g transform="translate(0.000000,700.000000) scale(0.100000,-0.100000)"
fill="#000000" stroke="none">
<path d="M3520 3475 l-3324 -3324 3327 0 3327 0 0 3324 c0 1829 -1 3325 -3
3325 -1 0 -1498 -1496 -3327 -3325z m2533 -561 c-1 -1076 -4 -1958 -6 -1960
-2 -2 -884 -3 -1961 -2 l-1957 3 1957 1958 c1077 1076 1960 1957 1964 1957 3
0 4 -880 3 -1956z"/>
<path d="M4403 2574 c-672 -673 -1219 -1225 -1215 -1227 4 -2 561 -3 1237 -3
l1230 1 1 1228 c1 1120 0 1227 -15 1226 -9 -1 -566 -552 -1238 -1225z m774
-326 l-2 -423 -423 -1 -423 -2 423 424 c233 233 424 424 425 424 1 0 1 -190 0
-422z"/>
</g>
</svg>
